<svg xmlns="http://www.w3.org/2000/svg" xmlns:xlink="http://www.w3.org/1999/xlink" width="500" zoomAndPan="magnify" viewBox="0 0 375 374.999991" height="500" preserveAspectRatio="xMidYMid meet" version="1.0"><defs><g/><clipPath id="99e561d79c"><path d="M 168 99 L 304 99 L 304 249 L 168 249 Z M 168 99 " clip-rule="nonzero"/></clipPath><clipPath id="386aeceb87"><path d="M 261.988281 288.558594 L 124.351562 193.539062 L 215.109375 62.074219 L 352.746094 157.097656 Z M 261.988281 288.558594 " clip-rule="nonzero"/></clipPath><clipPath id="aed13ade8b"><path d="M 261.988281 288.558594 L 124.351562 193.539062 L 215.109375 62.074219 L 352.746094 157.097656 Z M 261.988281 288.558594 " clip-rule="nonzero"/></clipPath></defs><g clip-path="url(#99e561d79c)"><g clip-path="url(#386aeceb87)"><g clip-path="url(#aed13ade8b)"><path fill="#4b1e3d" d="M 168.277344 133.109375 C 183.703125 107.777344 214.511719 94.804688 243.546875 100.523438 C 245.828125 100.980469 248.082031 101.539062 250.308594 102.207031 C 252.535156 102.871094 254.726562 103.640625 256.882812 104.507812 C 259.039062 105.378906 261.148438 106.347656 263.214844 107.414062 C 265.277344 108.480469 267.289062 109.640625 269.246094 110.894531 C 271.203125 112.152344 273.097656 113.492188 274.929688 114.925781 C 276.761719 116.355469 278.519531 117.867188 280.210938 119.464844 C 281.902344 121.058594 283.515625 122.730469 285.046875 124.476562 C 286.582031 126.222656 288.035156 128.035156 289.398438 129.917969 C 290.765625 131.796875 292.039062 133.738281 293.226562 135.738281 C 294.410156 137.738281 295.5 139.789062 296.492188 141.890625 C 297.484375 143.996094 298.378906 146.136719 299.171875 148.324219 C 299.96875 150.511719 300.65625 152.726562 301.246094 154.976562 C 301.832031 157.230469 302.3125 159.5 302.691406 161.796875 C 303.066406 164.09375 303.332031 166.402344 303.496094 168.722656 C 303.65625 171.042969 303.707031 173.367188 303.652344 175.691406 C 303.597656 178.019531 303.433594 180.335938 303.160156 182.648438 C 296.273438 238.664062 232.109375 267.917969 186.601562 233.574219 C 188.285156 234.503906 191.957031 236.535156 193.628906 237.328125 L 199.648438 239.921875 C 208.34375 243.035156 217.308594 244.53125 226.546875 244.414062 C 229.742188 244.355469 232.917969 244.082031 236.074219 243.59375 C 239.230469 243.105469 242.34375 242.40625 245.40625 241.496094 C 248.46875 240.585938 251.457031 239.476562 254.375 238.164062 C 257.289062 236.851562 260.101562 235.347656 262.8125 233.65625 C 265.523438 231.964844 268.109375 230.097656 270.570312 228.054688 C 273.03125 226.015625 275.34375 223.816406 277.507812 221.464844 C 279.671875 219.109375 281.667969 216.621094 283.496094 213.996094 C 285.324219 211.375 286.96875 208.640625 288.429688 205.796875 C 289.238281 204.203125 289.980469 202.582031 290.664062 200.929688 C 291.347656 199.28125 291.964844 197.605469 292.519531 195.910156 C 293.074219 194.210938 293.5625 192.496094 293.984375 190.757812 C 294.410156 189.023438 294.765625 187.277344 295.054688 185.511719 C 295.34375 183.75 295.566406 181.980469 295.71875 180.203125 C 295.871094 178.421875 295.957031 176.640625 295.972656 174.855469 C 295.992188 173.070312 295.9375 171.289062 295.820312 169.507812 C 295.699219 167.726562 295.511719 165.953125 295.257812 164.183594 C 295 162.417969 294.679688 160.664062 294.289062 158.921875 C 293.898438 157.179688 293.441406 155.457031 292.917969 153.75 C 292.398438 152.042969 291.8125 150.359375 291.160156 148.699219 C 290.507812 147.039062 289.792969 145.40625 289.019531 143.796875 C 288.242188 142.191406 287.40625 140.617188 286.507812 139.074219 C 285.609375 137.535156 284.65625 136.027344 283.640625 134.5625 C 282.628906 133.09375 281.5625 131.664062 280.441406 130.277344 C 279.316406 128.890625 278.144531 127.550781 276.917969 126.253906 C 275.742188 125.027344 274.523438 123.84375 273.257812 122.703125 C 271.996094 121.566406 270.695312 120.472656 269.355469 119.429688 C 268.011719 118.382812 266.636719 117.386719 265.222656 116.441406 C 263.808594 115.496094 262.363281 114.601562 260.886719 113.757812 C 259.410156 112.917969 257.902344 112.128906 256.367188 111.394531 C 254.835938 110.660156 253.277344 109.984375 251.691406 109.363281 C 250.109375 108.742188 248.507812 108.179688 246.882812 107.671875 C 245.257812 107.167969 243.617188 106.71875 241.964844 106.332031 C 240.308594 105.945312 238.640625 105.617188 236.960938 105.347656 C 235.277344 105.082031 233.59375 104.875 231.898438 104.730469 C 230.203125 104.582031 228.503906 104.496094 226.804688 104.472656 C 225.101562 104.449219 223.402344 104.488281 221.703125 104.585938 C 220.003906 104.683594 218.3125 104.84375 216.625 105.0625 C 214.9375 105.285156 213.257812 105.566406 211.59375 105.90625 C 209.925781 106.246094 208.273438 106.648438 206.632812 107.109375 C 204.996094 107.566406 203.375 108.085938 201.773438 108.664062 C 193.097656 111.847656 185.238281 116.441406 178.203125 122.441406 C 176.824219 123.738281 174.855469 125.730469 173.488281 127.007812 C 172.125 128.285156 169.53125 131.609375 168.246094 133.019531 Z M 168.277344 133.109375 " fill-opacity="1" fill-rule="nonzero"/></g></g></g><g fill="#4b1e3d" fill-opacity="1"><g transform="translate(51.473779, 197.054973)"><g><path d="M 50.4375 -11.796875 C 52.234375 -14.84375 53.40625 -14.101562 55.945312 -13.515625 C 58.992188 -12.34375 61.84375 -11.25 64.421875 -10.3125 C 65.242188 -10 65.789062 -9.335938 65.90625 -8.476562 C 66.570312 -3.671875 67.585938 -1.132812 69.148438 -0.625 C 69.421875 -0.507812 69.695312 -0.546875 69.929688 -0.664062 C 70.164062 -0.78125 70.359375 -1.015625 70.4375 -1.25 C 70.59375 -1.796875 70.320312 -2.382812 69.773438 -2.578125 C 69.109375 -2.8125 68.601562 -4.375 68.210938 -6.757812 C 68.09375 -7.265625 68.289062 -7.773438 68.679688 -8.085938 C 69.03125 -8.398438 69.578125 -8.515625 70.046875 -8.359375 C 72.703125 -7.382812 75.515625 -6.796875 78.371094 -6.640625 C 78.605469 -6.640625 78.878906 -6.757812 79.074219 -6.953125 C 79.269531 -7.148438 79.347656 -7.421875 79.347656 -7.695312 C 79.347656 -7.96875 79.230469 -8.242188 79.035156 -8.398438 C 78.839844 -8.59375 78.566406 -8.710938 78.292969 -8.710938 C 75.125 -8.945312 72.039062 -9.6875 69.070312 -10.859375 C 68.210938 -11.132812 67.585938 -11.914062 67.507812 -12.8125 C 66.882812 -20.980469 66.804688 -31.957031 66.765625 -38.089844 C 66.726562 -46.648438 66.648438 -49.96875 66.257812 -50.90625 C 66.101562 -51.335938 65.710938 -51.609375 65.28125 -51.570312 C 64.8125 -51.53125 64.460938 -51.21875 64.34375 -50.789062 C 62.039062 -42.464844 59.1875 -34.300781 55.789062 -26.371094 C 54.65625 -23.792969 53.5625 -21.449219 52.429688 -19.261719 C 51.921875 -18.246094 50.671875 -17.777344 49.617188 -18.167969 C 36.800781 -23.089844 22.152344 -28.363281 10.9375 -29.222656 C 6.601562 -29.535156 3.789062 -28.753906 2.578125 -26.917969 C 1.5625 -25.355469 1.757812 -23.285156 3.125 -20.746094 C 7.421875 -12.890625 23.988281 -0.390625 35.589844 -0.390625 C 41.058594 -0.390625 46.101562 -5.195312 50.4375 -11.796875 Z M 9.023438 -27.230469 C 9.570312 -27.230469 10.15625 -27.230469 10.78125 -27.191406 C 21.449219 -26.371094 35.472656 -21.410156 47.898438 -16.644531 C 48.523438 -16.410156 49.03125 -15.863281 49.226562 -15.234375 C 49.460938 -14.570312 49.34375 -13.867188 48.992188 -13.28125 C 44.417969 -6.132812 39.886719 -2.460938 35.589844 -2.460938 C 25.589844 -2.460938 9.335938 -13.632812 4.921875 -21.722656 C 4.257812 -22.972656 3.59375 -24.691406 4.296875 -25.785156 C 4.882812 -26.722656 6.5625 -27.230469 9.023438 -27.230469 Z M 63.914062 -42.230469 C 64.1875 -43.050781 64.695312 -42.894531 64.695312 -41.996094 C 64.695312 -40.746094 64.695312 -39.417969 64.734375 -38.089844 C 64.773438 -28.480469 64.929688 -20.824219 65.28125 -15 C 65.359375 -14.335938 65.046875 -13.75 64.539062 -13.359375 C 64.03125 -12.96875 63.367188 -12.890625 62.78125 -13.125 C 60.320312 -14.0625 57.664062 -15.078125 54.929688 -16.136719 L 53.40625 -16.722656 C 57.664062 -24.886719 61.179688 -33.441406 63.914062 -42.230469 Z M 63.914062 -42.230469 "/></g></g></g><g fill="#4b1e3d" fill-opacity="1"><g transform="translate(132.871696, 197.054973)"><g><path d="M 32.777344 -10.039062 C 32.582031 -10.234375 32.347656 -10.390625 32.074219 -10.390625 C 31.800781 -10.429688 31.527344 -10.351562 31.332031 -10.195312 C 31.175781 -10.078125 16.136719 1.875 3.59375 -3.28125 C 1.054688 -4.335938 0.9375 -5.703125 1.015625 -6.445312 C 1.015625 -6.5625 1.054688 -6.679688 1.171875 -6.757812 C 1.25 -6.835938 1.40625 -6.835938 1.523438 -6.796875 C 4.0625 -6.640625 6.601562 -7.304688 8.789062 -8.671875 C 10.664062 -9.882812 10.976562 -11.210938 10.859375 -12.070312 C 10.78125 -13.476562 9.648438 -14.609375 8.203125 -14.648438 C 5.117188 -14.804688 -0.0390625 -11.132812 -0.898438 -7.226562 C -1.25 -5.78125 -1.210938 -3.046875 2.8125 -1.40625 C 5.273438 -0.390625 7.851562 0.078125 10.46875 0.078125 C 21.683594 0.078125 32.074219 -8.164062 32.621094 -8.59375 C 32.816406 -8.75 32.972656 -9.023438 32.972656 -9.257812 C 33.011719 -9.53125 32.933594 -9.804688 32.777344 -10.039062 Z M 2.421875 -9.179688 C 3.945312 -11.289062 6.484375 -12.695312 8.085938 -12.578125 C 8.515625 -12.578125 8.75 -12.421875 8.828125 -11.835938 C 8.867188 -11.445312 8.4375 -10.898438 7.65625 -10.390625 C 6.054688 -9.335938 1.25 -7.617188 2.421875 -9.179688 Z M 2.421875 -9.179688 "/></g></g></g><g fill="#4b1e3d" fill-opacity="1"><g transform="translate(164.157552, 197.054973)"><g><path d="M 26.800781 -10.820312 C 26.605469 -11.015625 26.371094 -11.09375 26.097656 -11.09375 C 25.824219 -11.09375 25.550781 -11.015625 25.355469 -10.820312 C 21.605469 -7.265625 16.996094 -4.765625 11.953125 -3.554688 C 11.757812 -3.476562 11.523438 -3.554688 11.40625 -3.710938 C 11.289062 -3.90625 11.25 -4.101562 11.367188 -4.296875 C 12.070312 -5.664062 11.914062 -7.304688 11.015625 -8.554688 C 10.46875 -9.296875 9.765625 -9.921875 8.945312 -10.390625 C 7.851562 -11.132812 6.640625 -11.992188 6.601562 -12.890625 C 6.640625 -13.398438 6.835938 -13.867188 7.1875 -14.257812 L 9.296875 -16.253906 C 9.6875 -16.644531 9.726562 -17.269531 9.375 -17.660156 C 9.023438 -18.089844 8.4375 -18.167969 7.96875 -17.816406 C 7.148438 -17.191406 6.367188 -16.488281 5.703125 -15.667969 L -0.3125 -10.039062 C -0.585938 -9.804688 -0.703125 -9.414062 -0.625 -9.0625 C -0.546875 -8.671875 -0.273438 -8.398438 0.078125 -8.28125 C 0.429688 -8.203125 0.820312 -8.28125 1.09375 -8.554688 L 4.0625 -11.328125 C 4.21875 -11.484375 4.414062 -11.523438 4.609375 -11.523438 C 4.804688 -11.484375 4.960938 -11.367188 5.039062 -11.210938 C 5.78125 -10.195312 6.71875 -9.335938 7.773438 -8.710938 C 8.359375 -8.359375 8.867188 -7.96875 9.296875 -7.460938 C 9.6875 -7.03125 9.882812 -6.445312 9.765625 -5.859375 C 9.648438 -5.273438 9.296875 -4.765625 8.789062 -4.492188 C 6.289062 -3.085938 3.125 -3.75 1.40625 -6.054688 C 1.132812 -6.484375 0.507812 -6.640625 0.0390625 -6.328125 C -0.429688 -6.054688 -0.585938 -5.46875 -0.3125 -4.960938 C 0.976562 -2.734375 3.28125 -1.289062 5.859375 -1.09375 C 6.523438 -0.976562 7.148438 -0.9375 7.8125 -0.9375 C 14.414062 -0.9375 22.542969 -5.078125 26.800781 -9.375 C 27.191406 -9.765625 27.191406 -10.429688 26.800781 -10.820312 Z M 26.800781 -10.820312 "/></g></g></g><g fill="#4b1e3d" fill-opacity="1"><g transform="translate(189.389347, 197.054973)"><g><path d="M 26.800781 -10.625 C 26.410156 -11.015625 25.746094 -11.015625 25.355469 -10.585938 C 25.277344 -10.507812 14.6875 0.15625 7.65625 -2.5 C 4.53125 -3.710938 3.203125 -7.34375 2.695312 -10.9375 C 3.398438 -12.65625 4.570312 -15.511719 5.664062 -18.714844 C 5.78125 -19.105469 5.898438 -19.144531 6.367188 -19.183594 C 11.640625 -19.574219 16.878906 -19.769531 19.964844 -19.769531 C 20.550781 -19.769531 20.980469 -20.238281 20.980469 -20.785156 C 20.980469 -21.371094 20.550781 -21.800781 19.964844 -21.800781 C 16.996094 -21.800781 12.109375 -21.566406 7.109375 -21.292969 C 6.914062 -21.253906 6.5625 -21.371094 6.835938 -22.074219 C 8.710938 -27.425781 10.039062 -32.855469 9.21875 -34.496094 C 8.398438 -36.136719 7.304688 -36.175781 6.757812 -36.058594 C 3.867188 -35.511719 1.757812 -28.011719 0.820312 -21.878906 C 0.742188 -21.332031 0.46875 -20.863281 -0.0390625 -20.824219 C -6.171875 -20.355469 -11.210938 -20.003906 -11.289062 -20.003906 C -11.875 -19.964844 -12.304688 -19.496094 -12.265625 -18.910156 C -12.265625 -18.363281 -11.796875 -17.894531 -11.210938 -17.933594 L -11.132812 -17.933594 C -11.015625 -17.933594 -6.289062 -18.285156 -0.390625 -18.714844 C -0.195312 -18.753906 0 -18.714844 0.15625 -18.558594 C 0.3125 -18.441406 0.429688 -18.246094 0.429688 -18.050781 C -0.15625 -8.75 2.1875 -2.382812 6.914062 -0.585938 C 7.929688 -0.234375 8.984375 -0.0390625 10.078125 -0.0390625 C 17.816406 -0.0390625 26.410156 -8.75 26.839844 -9.140625 C 27.035156 -9.335938 27.113281 -9.609375 27.113281 -9.882812 C 27.113281 -10.15625 26.996094 -10.429688 26.800781 -10.625 Z M 2.890625 -21.957031 C 3.789062 -27.894531 5.585938 -32.582031 6.640625 -33.792969 C 6.757812 -33.871094 6.914062 -33.910156 7.070312 -33.871094 C 7.1875 -33.832031 7.304688 -33.753906 7.382812 -33.597656 C 7.851562 -32.582031 6.523438 -27.621094 4.53125 -21.722656 C 4.453125 -21.371094 4.179688 -21.097656 3.789062 -21.058594 C 3.59375 -21.019531 3.398438 -21.019531 3.164062 -21.019531 C 2.773438 -21.019531 2.851562 -21.644531 2.890625 -21.917969 Z M 2.421875 -15.824219 C 2.03125 -15.824219 2.1875 -18.558594 2.539062 -18.949219 C 2.851562 -19.144531 3.242188 -19.183594 3.554688 -18.988281 C 3.90625 -18.675781 2.851562 -15.824219 2.421875 -15.824219 Z M 2.421875 -15.824219 "/></g></g></g><g fill="#4b1e3d" fill-opacity="1"><g transform="translate(214.347731, 197.054973)"><g><path d="M 25.316406 -10.546875 C 24.886719 -10.9375 24.261719 -10.9375 23.871094 -10.507812 C 23.714844 -10.390625 11.054688 2.5 2.65625 -3.632812 C 0.078125 -5.507812 2.578125 -10.390625 2.617188 -10.429688 C 2.851562 -10.9375 2.65625 -11.523438 2.148438 -11.796875 C 1.640625 -12.03125 1.054688 -11.875 0.78125 -11.367188 C 0.625 -11.132812 -2.539062 -4.921875 1.445312 -1.992188 C 3.28125 -0.625 5.546875 0.117188 7.851562 0.078125 C 16.292969 0.078125 24.847656 -8.632812 25.316406 -9.101562 C 25.511719 -9.296875 25.628906 -9.53125 25.628906 -9.804688 C 25.589844 -10.078125 25.511719 -10.351562 25.316406 -10.546875 Z M 0.351562 -13.632812 C 0.507812 -13.632812 0.664062 -13.671875 0.820312 -13.75 C 1.757812 -14.21875 2.578125 -14.84375 3.320312 -15.589844 C 3.710938 -16.019531 3.671875 -16.644531 3.28125 -17.035156 C 2.851562 -17.425781 2.226562 -17.425781 1.835938 -16.996094 C 1.25 -16.410156 0.585938 -15.941406 -0.15625 -15.550781 C -0.546875 -15.355469 -0.78125 -14.84375 -0.664062 -14.414062 C -0.546875 -13.945312 -0.117188 -13.632812 0.351562 -13.632812 Z M 0.351562 -13.632812 "/></g></g></g><g fill="#4b1e3d" fill-opacity="1"><g transform="translate(238.329647, 197.054973)"><g><path d="M 32.933594 -9.726562 C 32.542969 -10.15625 31.878906 -10.195312 31.488281 -9.804688 C 31.371094 -9.726562 20.121094 0.3125 4.375 -2.539062 C 1.71875 -3.007812 0.351562 -4.023438 0.351562 -5.507812 C 0.3125 -8.242188 4.570312 -12.226562 7.382812 -12.773438 C 8.242188 -13.046875 9.179688 -12.890625 9.960938 -12.382812 C 10.507812 -11.835938 10.820312 -11.054688 10.820312 -10.234375 C 10.820312 -9.6875 11.25 -9.21875 11.796875 -9.21875 C 12.382812 -9.21875 12.8125 -9.648438 12.851562 -10.195312 C 12.890625 -11.601562 12.304688 -12.96875 11.289062 -13.945312 C 10.039062 -14.882812 8.476562 -15.195312 6.992188 -14.765625 C 3.59375 -14.140625 -1.71875 -9.609375 -1.679688 -5.46875 C -1.679688 -3.984375 -0.9375 -1.40625 4.023438 -0.507812 C 6.015625 -0.15625 8.046875 0.0390625 10.117188 0.0390625 C 18.402344 -0.0390625 26.449219 -2.96875 32.855469 -8.28125 C 33.050781 -8.476562 33.167969 -8.75 33.207031 -8.984375 C 33.207031 -9.257812 33.089844 -9.53125 32.933594 -9.726562 Z M 32.933594 -9.726562 "/></g></g></g><g fill="#4b1e3d" fill-opacity="1"><g transform="translate(269.615504, 197.054973)"><g><path d="M 32.660156 -9.453125 C 32.269531 -9.882812 31.605469 -9.921875 31.175781 -9.53125 C 31.058594 -9.414062 19.457031 1.015625 12.265625 -3.710938 C 9.414062 -5.585938 8.710938 -10.117188 8.710938 -10.15625 C 8.671875 -10.625 8.320312 -10.976562 7.851562 -11.054688 C 7.421875 -11.09375 6.953125 -10.859375 6.757812 -10.46875 C 4.921875 -6.40625 1.679688 -1.25 0.78125 -1.835938 C 0.703125 -1.835938 0.546875 -1.992188 0.429688 -2.265625 C -0.0390625 -3.554688 0.117188 -4.960938 0.78125 -6.171875 C 2.265625 -9.21875 5 -11.40625 8.28125 -12.226562 C 8.632812 -12.304688 8.90625 -12.578125 9.023438 -12.929688 C 9.140625 -13.28125 9.023438 -13.671875 8.789062 -13.945312 C 8.515625 -14.179688 8.164062 -14.296875 7.8125 -14.21875 C 3.90625 -13.28125 0.664062 -10.625 -1.09375 -7.03125 C -2.03125 -5.273438 -2.148438 -3.164062 -1.40625 -1.328125 C -1.054688 -0.429688 -0.195312 0.195312 0.78125 0.195312 L 0.820312 0.195312 C 2.734375 0.15625 5.117188 -2.226562 6.757812 -4.804688 C 6.953125 -5.117188 7.304688 -5.273438 7.65625 -5.234375 C 8.007812 -5.234375 8.320312 -5.039062 8.476562 -4.726562 C 9.140625 -3.632812 10.039062 -2.695312 11.132812 -2.03125 C 19.652344 3.632812 32.035156 -7.539062 32.582031 -8.007812 C 32.777344 -8.203125 32.894531 -8.476562 32.894531 -8.710938 C 32.933594 -8.984375 32.816406 -9.257812 32.660156 -9.453125 Z M 32.660156 -9.453125 "/></g></g></g><g fill="#4b1e3d" fill-opacity="1"><g transform="translate(99.552441, 223.293237)"><g><path d="M 0.09375 -0.40625 C 0.289062 -0.425781 0.457031 -0.457031 0.59375 -0.5 C 0.726562 -0.539062 0.867188 -0.601562 1.015625 -0.6875 L 1.953125 -6.59375 C 1.710938 -6.738281 1.40625 -6.832031 1.03125 -6.875 L 1.078125 -7.28125 L 2.96875 -7.28125 L 4.359375 -1.265625 L 7.65625 -7.28125 L 9.421875 -7.28125 L 9.359375 -6.875 C 9.171875 -6.851562 9.003906 -6.820312 8.859375 -6.78125 C 8.722656 -6.738281 8.582031 -6.675781 8.4375 -6.59375 L 7.5 -0.6875 C 7.738281 -0.550781 8.0625 -0.457031 8.46875 -0.40625 L 8.4375 0 L 5.546875 0 L 5.609375 -0.40625 C 5.796875 -0.425781 5.960938 -0.457031 6.109375 -0.5 C 6.253906 -0.539062 6.394531 -0.601562 6.53125 -0.6875 L 7.390625 -5.59375 L 4.3125 0 L 3.71875 0 L 2.40625 -5.59375 L 1.71875 -0.6875 C 1.957031 -0.550781 2.285156 -0.457031 2.703125 -0.40625 L 2.65625 0 L 0.03125 0 Z M 0.09375 -0.40625 "/></g></g></g><g fill="#4b1e3d" fill-opacity="1"><g transform="translate(109.62351, 223.293237)"><g><path d="M 0.046875 -0.40625 C 0.253906 -0.4375 0.429688 -0.46875 0.578125 -0.5 C 0.734375 -0.539062 0.882812 -0.601562 1.03125 -0.6875 L 1.96875 -6.59375 C 1.726562 -6.738281 1.414062 -6.832031 1.03125 -6.875 L 1.078125 -7.28125 L 5.875 -7.28125 L 5.71875 -5.640625 C 5.644531 -5.597656 5.546875 -5.578125 5.421875 -5.578125 C 5.367188 -5.578125 5.304688 -5.585938 5.234375 -5.609375 C 5.210938 -6.085938 5.117188 -6.453125 4.953125 -6.703125 L 2.953125 -6.703125 L 2.515625 -3.96875 L 3.609375 -4.015625 C 3.765625 -4.015625 3.90625 -4.066406 4.03125 -4.171875 C 4.164062 -4.285156 4.285156 -4.472656 4.390625 -4.734375 L 4.734375 -4.734375 L 4.40625 -2.609375 L 4.0625 -2.609375 C 4.03125 -2.910156 3.976562 -3.113281 3.90625 -3.21875 C 3.832031 -3.332031 3.707031 -3.394531 3.53125 -3.40625 L 2.421875 -3.453125 L 1.984375 -0.625 L 4.09375 -0.625 C 4.226562 -0.769531 4.34375 -0.9375 4.4375 -1.125 C 4.539062 -1.320312 4.644531 -1.5625 4.75 -1.84375 C 4.820312 -1.863281 4.894531 -1.875 4.96875 -1.875 C 5.019531 -1.875 5.097656 -1.863281 5.203125 -1.84375 L 4.8125 0 L -0.015625 0 Z M 0.046875 -0.40625 "/></g></g></g><g fill="#4b1e3d" fill-opacity="1"><g transform="translate(116.10514, 223.293237)"><g><path d="M 0.03125 -0.40625 C 0.257812 -0.4375 0.445312 -0.46875 0.59375 -0.5 C 0.738281 -0.539062 0.878906 -0.597656 1.015625 -0.671875 L 1.953125 -6.59375 C 1.722656 -6.726562 1.414062 -6.820312 1.03125 -6.875 L 1.078125 -7.28125 L 3.390625 -7.28125 C 4.390625 -7.28125 5.15625 -7.078125 5.6875 -6.671875 C 6.21875 -6.265625 6.484375 -5.609375 6.484375 -4.703125 C 6.484375 -3.210938 6.113281 -2.054688 5.375 -1.234375 C 4.644531 -0.410156 3.597656 0 2.234375 0 L -0.015625 0 Z M 2.625 -0.53125 C 3.257812 -0.53125 3.785156 -0.75 4.203125 -1.1875 C 4.628906 -1.625 4.9375 -2.171875 5.125 -2.828125 C 5.320312 -3.484375 5.421875 -4.144531 5.421875 -4.8125 C 5.421875 -5.519531 5.25 -6.015625 4.90625 -6.296875 C 4.570312 -6.585938 4.085938 -6.734375 3.453125 -6.734375 L 2.9375 -6.734375 L 2.046875 -1.203125 C 2.023438 -1.015625 2.015625 -0.898438 2.015625 -0.859375 C 2.015625 -0.742188 2.0625 -0.660156 2.15625 -0.609375 C 2.25 -0.554688 2.40625 -0.53125 2.625 -0.53125 Z M 2.625 -0.53125 "/></g></g></g><g fill="#4b1e3d" fill-opacity="1"><g transform="translate(123.590508, 223.293237)"><g><path d="M 0.09375 -0.40625 C 0.289062 -0.425781 0.457031 -0.457031 0.59375 -0.5 C 0.738281 -0.539062 0.882812 -0.601562 1.03125 -0.6875 L 1.96875 -6.59375 C 1.726562 -6.738281 1.414062 -6.832031 1.03125 -6.875 L 1.078125 -7.28125 L 3.90625 -7.28125 L 3.859375 -6.875 C 3.671875 -6.851562 3.503906 -6.820312 3.359375 -6.78125 C 3.210938 -6.738281 3.066406 -6.675781 2.921875 -6.59375 L 1.984375 -0.6875 C 2.222656 -0.550781 2.550781 -0.457031 2.96875 -0.40625 L 2.921875 0 L 0.03125 0 Z M 0.09375 -0.40625 "/></g></g></g><g fill="#4b1e3d" fill-opacity="1"><g transform="translate(128.151945, 223.293237)"><g><path d="M 2.40625 0.078125 C 1.78125 0.078125 1.285156 -0.140625 0.921875 -0.578125 C 0.554688 -1.023438 0.375 -1.664062 0.375 -2.5 C 0.375 -3.4375 0.503906 -4.269531 0.765625 -5 C 1.035156 -5.738281 1.4375 -6.316406 1.96875 -6.734375 C 2.5 -7.160156 3.148438 -7.375 3.921875 -7.375 C 4.484375 -7.375 4.921875 -7.25 5.234375 -7 C 5.554688 -6.757812 5.71875 -6.460938 5.71875 -6.109375 C 5.71875 -5.867188 5.65625 -5.648438 5.53125 -5.453125 C 5.40625 -5.253906 5.222656 -5.15625 4.984375 -5.15625 C 4.835938 -5.15625 4.710938 -5.191406 4.609375 -5.265625 C 4.503906 -5.347656 4.445312 -5.453125 4.4375 -5.578125 C 4.582031 -5.742188 4.65625 -5.921875 4.65625 -6.109375 C 4.65625 -6.304688 4.582031 -6.46875 4.4375 -6.59375 C 4.300781 -6.726562 4.09375 -6.800781 3.8125 -6.8125 C 3.289062 -6.8125 2.847656 -6.601562 2.484375 -6.1875 C 2.128906 -5.769531 1.863281 -5.21875 1.6875 -4.53125 C 1.519531 -3.851562 1.4375 -3.117188 1.4375 -2.328125 C 1.4375 -1.722656 1.539062 -1.273438 1.75 -0.984375 C 1.96875 -0.703125 2.257812 -0.5625 2.625 -0.5625 C 2.957031 -0.5625 3.296875 -0.644531 3.640625 -0.8125 C 3.984375 -0.976562 4.359375 -1.222656 4.765625 -1.546875 L 5.109375 -1.078125 C 4.597656 -0.671875 4.140625 -0.375 3.734375 -0.1875 C 3.335938 -0.0078125 2.894531 0.078125 2.40625 0.078125 Z M 2.40625 0.078125 "/></g></g></g><g fill="#4b1e3d" fill-opacity="1"><g transform="translate(134.513561, 223.293237)"><g><path d="M -0.28125 -0.40625 C -0.101562 -0.4375 0.0390625 -0.46875 0.15625 -0.5 C 0.28125 -0.53125 0.398438 -0.582031 0.515625 -0.65625 L 3.484375 -7.28125 L 4.1875 -7.28125 L 5.3125 -0.671875 C 5.414062 -0.597656 5.523438 -0.539062 5.640625 -0.5 C 5.765625 -0.46875 5.910156 -0.4375 6.078125 -0.40625 L 6.046875 0 L 3.140625 0 L 3.21875 -0.40625 C 3.632812 -0.457031 3.976562 -0.550781 4.25 -0.6875 L 4 -2.34375 L 1.96875 -2.34375 L 1.25 -0.671875 C 1.476562 -0.546875 1.820312 -0.457031 2.28125 -0.40625 L 2.234375 0 L -0.34375 0 Z M 3.90625 -2.921875 L 3.46875 -5.828125 L 2.203125 -2.921875 Z M 3.90625 -2.921875 "/></g></g></g><g fill="#4b1e3d" fill-opacity="1"><g transform="translate(141.780725, 223.293237)"><g><path d="M 0.09375 -0.40625 C 0.28125 -0.425781 0.445312 -0.457031 0.59375 -0.5 C 0.738281 -0.539062 0.878906 -0.601562 1.015625 -0.6875 L 1.96875 -6.59375 C 1.726562 -6.726562 1.414062 -6.820312 1.03125 -6.875 L 1.078125 -7.28125 L 4.015625 -7.28125 L 3.96875 -6.875 C 3.5 -6.820312 3.148438 -6.726562 2.921875 -6.59375 L 2.046875 -1.046875 L 2.03125 -0.9375 C 2.03125 -0.8125 2.082031 -0.726562 2.1875 -0.6875 C 2.289062 -0.644531 2.484375 -0.625 2.765625 -0.625 L 3.828125 -0.625 C 4.066406 -0.90625 4.285156 -1.3125 4.484375 -1.84375 C 4.566406 -1.863281 4.640625 -1.875 4.703125 -1.875 C 4.734375 -1.875 4.804688 -1.863281 4.921875 -1.84375 L 4.515625 0 L 0.015625 0 Z M 0.09375 -0.40625 "/></g></g></g><g fill="#4b1e3d" fill-opacity="1"><g transform="translate(147.91323, 223.293237)"><g/></g></g><g fill="#4b1e3d" fill-opacity="1"><g transform="translate(151.27456, 223.293237)"><g><path d="M -0.28125 -0.40625 C -0.101562 -0.4375 0.0390625 -0.46875 0.15625 -0.5 C 0.28125 -0.53125 0.398438 -0.582031 0.515625 -0.65625 L 3.484375 -7.28125 L 4.1875 -7.28125 L 5.3125 -0.671875 C 5.414062 -0.597656 5.523438 -0.539062 5.640625 -0.5 C 5.765625 -0.46875 5.910156 -0.4375 6.078125 -0.40625 L 6.046875 0 L 3.140625 0 L 3.21875 -0.40625 C 3.632812 -0.457031 3.976562 -0.550781 4.25 -0.6875 L 4 -2.34375 L 1.96875 -2.34375 L 1.25 -0.671875 C 1.476562 -0.546875 1.820312 -0.457031 2.28125 -0.40625 L 2.234375 0 L -0.34375 0 Z M 3.90625 -2.921875 L 3.46875 -5.828125 L 2.203125 -2.921875 Z M 3.90625 -2.921875 "/></g></g></g><g fill="#4b1e3d" fill-opacity="1"><g transform="translate(158.541723, 223.293237)"><g><path d="M 0.046875 -0.40625 C 0.253906 -0.4375 0.429688 -0.46875 0.578125 -0.5 C 0.734375 -0.539062 0.882812 -0.601562 1.03125 -0.6875 L 1.96875 -6.59375 C 1.726562 -6.738281 1.414062 -6.832031 1.03125 -6.875 L 1.078125 -7.28125 L 5.875 -7.28125 L 5.71875 -5.640625 C 5.644531 -5.597656 5.546875 -5.578125 5.421875 -5.578125 C 5.367188 -5.578125 5.304688 -5.585938 5.234375 -5.609375 C 5.210938 -6.085938 5.117188 -6.453125 4.953125 -6.703125 L 2.953125 -6.703125 L 2.515625 -3.96875 L 3.609375 -4.015625 C 3.765625 -4.015625 3.90625 -4.066406 4.03125 -4.171875 C 4.164062 -4.285156 4.285156 -4.472656 4.390625 -4.734375 L 4.734375 -4.734375 L 4.40625 -2.609375 L 4.0625 -2.609375 C 4.03125 -2.910156 3.976562 -3.113281 3.90625 -3.21875 C 3.832031 -3.332031 3.707031 -3.394531 3.53125 -3.40625 L 2.421875 -3.453125 L 1.984375 -0.625 L 4.09375 -0.625 C 4.226562 -0.769531 4.34375 -0.9375 4.4375 -1.125 C 4.539062 -1.320312 4.644531 -1.5625 4.75 -1.84375 C 4.820312 -1.863281 4.894531 -1.875 4.96875 -1.875 C 5.019531 -1.875 5.097656 -1.863281 5.203125 -1.84375 L 4.8125 0 L -0.015625 0 Z M 0.046875 -0.40625 "/></g></g></g><g fill="#4b1e3d" fill-opacity="1"><g transform="translate(165.023353, 223.293237)"><g><path d="M 1.765625 0.078125 C 1.398438 0.078125 1.066406 0.03125 0.765625 -0.0625 C 0.472656 -0.164062 0.179688 -0.304688 -0.109375 -0.484375 L 0.375 -2.265625 L 0.875 -2.203125 C 0.832031 -1.953125 0.8125 -1.695312 0.8125 -1.4375 C 0.8125 -1.238281 0.828125 -1.0625 0.859375 -0.90625 C 0.984375 -0.78125 1.148438 -0.679688 1.359375 -0.609375 C 1.566406 -0.535156 1.78125 -0.5 2 -0.5 C 2.332031 -0.5 2.609375 -0.601562 2.828125 -0.8125 C 3.054688 -1.019531 3.171875 -1.285156 3.171875 -1.609375 C 3.171875 -1.859375 3.085938 -2.097656 2.921875 -2.328125 C 2.753906 -2.554688 2.5 -2.851562 2.15625 -3.21875 C 2.15625 -3.21875 2.097656 -3.273438 1.984375 -3.390625 C 1.640625 -3.742188 1.375 -4.0625 1.1875 -4.34375 C 1.007812 -4.625 0.921875 -4.9375 0.921875 -5.28125 C 0.921875 -5.707031 1.03125 -6.078125 1.25 -6.390625 C 1.476562 -6.710938 1.773438 -6.957031 2.140625 -7.125 C 2.503906 -7.289062 2.882812 -7.375 3.28125 -7.375 C 3.789062 -7.375 4.1875 -7.257812 4.46875 -7.03125 C 4.757812 -6.800781 4.90625 -6.515625 4.90625 -6.171875 C 4.90625 -5.960938 4.84375 -5.773438 4.71875 -5.609375 C 4.59375 -5.453125 4.421875 -5.375 4.203125 -5.375 C 4.054688 -5.375 3.929688 -5.40625 3.828125 -5.46875 C 3.734375 -5.539062 3.679688 -5.628906 3.671875 -5.734375 C 3.796875 -5.890625 3.859375 -6.050781 3.859375 -6.21875 C 3.859375 -6.382812 3.789062 -6.519531 3.65625 -6.625 C 3.519531 -6.738281 3.320312 -6.800781 3.0625 -6.8125 C 2.726562 -6.8125 2.445312 -6.707031 2.21875 -6.5 C 1.988281 -6.289062 1.875 -6.019531 1.875 -5.6875 C 1.875 -5.4375 1.960938 -5.191406 2.140625 -4.953125 C 2.316406 -4.710938 2.59375 -4.40625 2.96875 -4.03125 C 3.238281 -3.75 3.445312 -3.519531 3.59375 -3.34375 C 3.75 -3.164062 3.882812 -2.957031 4 -2.71875 C 4.113281 -2.488281 4.171875 -2.242188 4.171875 -1.984375 C 4.171875 -1.492188 4.039062 -1.09375 3.78125 -0.78125 C 3.53125 -0.46875 3.21875 -0.242188 2.84375 -0.109375 C 2.476562 0.015625 2.117188 0.078125 1.765625 0.078125 Z M 1.765625 0.078125 "/></g></g></g><g fill="#4b1e3d" fill-opacity="1"><g transform="translate(170.501245, 223.293237)"><g><path d="M 0.890625 -0.40625 C 1.328125 -0.4375 1.671875 -0.523438 1.921875 -0.671875 L 2.890625 -6.71875 C 2.316406 -6.71875 1.828125 -6.707031 1.421875 -6.6875 C 1.273438 -6.5 1.148438 -6.289062 1.046875 -6.0625 C 0.941406 -5.84375 0.875 -5.644531 0.84375 -5.46875 C 0.726562 -5.457031 0.640625 -5.453125 0.578125 -5.453125 C 0.472656 -5.453125 0.398438 -5.457031 0.359375 -5.46875 L 0.640625 -7.3125 C 1.734375 -7.289062 2.617188 -7.28125 3.296875 -7.28125 C 4.878906 -7.28125 5.851562 -7.289062 6.21875 -7.3125 L 5.9375 -5.46875 C 5.875 -5.457031 5.789062 -5.453125 5.6875 -5.453125 C 5.625 -5.453125 5.539062 -5.457031 5.4375 -5.46875 C 5.445312 -5.53125 5.453125 -5.625 5.453125 -5.75 C 5.453125 -6.125 5.382812 -6.429688 5.25 -6.671875 C 5 -6.679688 4.535156 -6.695312 3.859375 -6.71875 L 2.890625 -0.671875 C 3.078125 -0.554688 3.441406 -0.46875 3.984375 -0.40625 L 3.9375 0 L 0.828125 0 Z M 0.890625 -0.40625 "/></g></g></g><g fill="#4b1e3d" fill-opacity="1"><g transform="translate(176.971969, 223.293237)"><g><path d="M 0.09375 -0.40625 C 0.289062 -0.425781 0.457031 -0.457031 0.59375 -0.5 C 0.738281 -0.539062 0.882812 -0.601562 1.03125 -0.6875 L 1.96875 -6.59375 C 1.726562 -6.738281 1.414062 -6.832031 1.03125 -6.875 L 1.078125 -7.28125 L 3.859375 -7.28125 L 3.796875 -6.875 C 3.617188 -6.851562 3.460938 -6.820312 3.328125 -6.78125 C 3.203125 -6.75 3.066406 -6.6875 2.921875 -6.59375 L 2.515625 -4.03125 L 5.296875 -4.03125 L 5.71875 -6.59375 C 5.445312 -6.738281 5.132812 -6.832031 4.78125 -6.875 L 4.828125 -7.28125 L 7.609375 -7.28125 L 7.53125 -6.875 C 7.351562 -6.851562 7.203125 -6.820312 7.078125 -6.78125 C 6.953125 -6.75 6.816406 -6.6875 6.671875 -6.59375 L 5.734375 -0.6875 C 5.972656 -0.550781 6.304688 -0.457031 6.734375 -0.40625 L 6.671875 0 L 3.84375 0 L 3.90625 -0.40625 C 4.09375 -0.425781 4.242188 -0.457031 4.359375 -0.5 C 4.484375 -0.539062 4.617188 -0.601562 4.765625 -0.6875 L 5.203125 -3.4375 L 2.421875 -3.4375 L 1.984375 -0.6875 C 2.128906 -0.601562 2.269531 -0.539062 2.40625 -0.5 C 2.550781 -0.457031 2.722656 -0.425781 2.921875 -0.40625 L 2.875 0 L 0.046875 0 Z M 0.09375 -0.40625 "/></g></g></g><g fill="#4b1e3d" fill-opacity="1"><g transform="translate(185.275589, 223.293237)"><g><path d="M 0.046875 -0.40625 C 0.253906 -0.4375 0.429688 -0.46875 0.578125 -0.5 C 0.734375 -0.539062 0.882812 -0.601562 1.03125 -0.6875 L 1.96875 -6.59375 C 1.726562 -6.738281 1.414062 -6.832031 1.03125 -6.875 L 1.078125 -7.28125 L 5.875 -7.28125 L 5.71875 -5.640625 C 5.644531 -5.597656 5.546875 -5.578125 5.421875 -5.578125 C 5.367188 -5.578125 5.304688 -5.585938 5.234375 -5.609375 C 5.210938 -6.085938 5.117188 -6.453125 4.953125 -6.703125 L 2.953125 -6.703125 L 2.515625 -3.96875 L 3.609375 -4.015625 C 3.765625 -4.015625 3.90625 -4.066406 4.03125 -4.171875 C 4.164062 -4.285156 4.285156 -4.472656 4.390625 -4.734375 L 4.734375 -4.734375 L 4.40625 -2.609375 L 4.0625 -2.609375 C 4.03125 -2.910156 3.976562 -3.113281 3.90625 -3.21875 C 3.832031 -3.332031 3.707031 -3.394531 3.53125 -3.40625 L 2.421875 -3.453125 L 1.984375 -0.625 L 4.09375 -0.625 C 4.226562 -0.769531 4.34375 -0.9375 4.4375 -1.125 C 4.539062 -1.320312 4.644531 -1.5625 4.75 -1.84375 C 4.820312 -1.863281 4.894531 -1.875 4.96875 -1.875 C 5.019531 -1.875 5.097656 -1.863281 5.203125 -1.84375 L 4.8125 0 L -0.015625 0 Z M 0.046875 -0.40625 "/></g></g></g><g fill="#4b1e3d" fill-opacity="1"><g transform="translate(191.757219, 223.293237)"><g><path d="M 0.890625 -0.40625 C 1.328125 -0.4375 1.671875 -0.523438 1.921875 -0.671875 L 2.890625 -6.71875 C 2.316406 -6.71875 1.828125 -6.707031 1.421875 -6.6875 C 1.273438 -6.5 1.148438 -6.289062 1.046875 -6.0625 C 0.941406 -5.84375 0.875 -5.644531 0.84375 -5.46875 C 0.726562 -5.457031 0.640625 -5.453125 0.578125 -5.453125 C 0.472656 -5.453125 0.398438 -5.457031 0.359375 -5.46875 L 0.640625 -7.3125 C 1.734375 -7.289062 2.617188 -7.28125 3.296875 -7.28125 C 4.878906 -7.28125 5.851562 -7.289062 6.21875 -7.3125 L 5.9375 -5.46875 C 5.875 -5.457031 5.789062 -5.453125 5.6875 -5.453125 C 5.625 -5.453125 5.539062 -5.457031 5.4375 -5.46875 C 5.445312 -5.53125 5.453125 -5.625 5.453125 -5.75 C 5.453125 -6.125 5.382812 -6.429688 5.25 -6.671875 C 5 -6.679688 4.535156 -6.695312 3.859375 -6.71875 L 2.890625 -0.671875 C 3.078125 -0.554688 3.441406 -0.46875 3.984375 -0.40625 L 3.9375 0 L 0.828125 0 Z M 0.890625 -0.40625 "/></g></g></g><g fill="#4b1e3d" fill-opacity="1"><g transform="translate(198.227949, 223.293237)"><g><path d="M 0.09375 -0.40625 C 0.289062 -0.425781 0.457031 -0.457031 0.59375 -0.5 C 0.738281 -0.539062 0.882812 -0.601562 1.03125 -0.6875 L 1.96875 -6.59375 C 1.726562 -6.738281 1.414062 -6.832031 1.03125 -6.875 L 1.078125 -7.28125 L 3.90625 -7.28125 L 3.859375 -6.875 C 3.671875 -6.851562 3.503906 -6.820312 3.359375 -6.78125 C 3.210938 -6.738281 3.066406 -6.675781 2.921875 -6.59375 L 1.984375 -0.6875 C 2.222656 -0.550781 2.550781 -0.457031 2.96875 -0.40625 L 2.921875 0 L 0.03125 0 Z M 0.09375 -0.40625 "/></g></g></g><g fill="#4b1e3d" fill-opacity="1"><g transform="translate(202.78938, 223.293237)"><g><path d="M 2.40625 0.078125 C 1.78125 0.078125 1.285156 -0.140625 0.921875 -0.578125 C 0.554688 -1.023438 0.375 -1.664062 0.375 -2.5 C 0.375 -3.4375 0.503906 -4.269531 0.765625 -5 C 1.035156 -5.738281 1.4375 -6.316406 1.96875 -6.734375 C 2.5 -7.160156 3.148438 -7.375 3.921875 -7.375 C 4.484375 -7.375 4.921875 -7.25 5.234375 -7 C 5.554688 -6.757812 5.71875 -6.460938 5.71875 -6.109375 C 5.71875 -5.867188 5.65625 -5.648438 5.53125 -5.453125 C 5.40625 -5.253906 5.222656 -5.15625 4.984375 -5.15625 C 4.835938 -5.15625 4.710938 -5.191406 4.609375 -5.265625 C 4.503906 -5.347656 4.445312 -5.453125 4.4375 -5.578125 C 4.582031 -5.742188 4.65625 -5.921875 4.65625 -6.109375 C 4.65625 -6.304688 4.582031 -6.46875 4.4375 -6.59375 C 4.300781 -6.726562 4.09375 -6.800781 3.8125 -6.8125 C 3.289062 -6.8125 2.847656 -6.601562 2.484375 -6.1875 C 2.128906 -5.769531 1.863281 -5.21875 1.6875 -4.53125 C 1.519531 -3.851562 1.4375 -3.117188 1.4375 -2.328125 C 1.4375 -1.722656 1.539062 -1.273438 1.75 -0.984375 C 1.96875 -0.703125 2.257812 -0.5625 2.625 -0.5625 C 2.957031 -0.5625 3.296875 -0.644531 3.640625 -0.8125 C 3.984375 -0.976562 4.359375 -1.222656 4.765625 -1.546875 L 5.109375 -1.078125 C 4.597656 -0.671875 4.140625 -0.375 3.734375 -0.1875 C 3.335938 -0.0078125 2.894531 0.078125 2.40625 0.078125 Z M 2.40625 0.078125 "/></g></g></g><g fill="#4b1e3d" fill-opacity="1"><g transform="translate(209.15099, 223.293237)"><g><path d="M 1.765625 0.078125 C 1.398438 0.078125 1.066406 0.03125 0.765625 -0.0625 C 0.472656 -0.164062 0.179688 -0.304688 -0.109375 -0.484375 L 0.375 -2.265625 L 0.875 -2.203125 C 0.832031 -1.953125 0.8125 -1.695312 0.8125 -1.4375 C 0.8125 -1.238281 0.828125 -1.0625 0.859375 -0.90625 C 0.984375 -0.78125 1.148438 -0.679688 1.359375 -0.609375 C 1.566406 -0.535156 1.78125 -0.5 2 -0.5 C 2.332031 -0.5 2.609375 -0.601562 2.828125 -0.8125 C 3.054688 -1.019531 3.171875 -1.285156 3.171875 -1.609375 C 3.171875 -1.859375 3.085938 -2.097656 2.921875 -2.328125 C 2.753906 -2.554688 2.5 -2.851562 2.15625 -3.21875 C 2.15625 -3.21875 2.097656 -3.273438 1.984375 -3.390625 C 1.640625 -3.742188 1.375 -4.0625 1.1875 -4.34375 C 1.007812 -4.625 0.921875 -4.9375 0.921875 -5.28125 C 0.921875 -5.707031 1.03125 -6.078125 1.25 -6.390625 C 1.476562 -6.710938 1.773438 -6.957031 2.140625 -7.125 C 2.503906 -7.289062 2.882812 -7.375 3.28125 -7.375 C 3.789062 -7.375 4.1875 -7.257812 4.46875 -7.03125 C 4.757812 -6.800781 4.90625 -6.515625 4.90625 -6.171875 C 4.90625 -5.960938 4.84375 -5.773438 4.71875 -5.609375 C 4.59375 -5.453125 4.421875 -5.375 4.203125 -5.375 C 4.054688 -5.375 3.929688 -5.40625 3.828125 -5.46875 C 3.734375 -5.539062 3.679688 -5.628906 3.671875 -5.734375 C 3.796875 -5.890625 3.859375 -6.050781 3.859375 -6.21875 C 3.859375 -6.382812 3.789062 -6.519531 3.65625 -6.625 C 3.519531 -6.738281 3.320312 -6.800781 3.0625 -6.8125 C 2.726562 -6.8125 2.445312 -6.707031 2.21875 -6.5 C 1.988281 -6.289062 1.875 -6.019531 1.875 -5.6875 C 1.875 -5.4375 1.960938 -5.191406 2.140625 -4.953125 C 2.316406 -4.710938 2.59375 -4.40625 2.96875 -4.03125 C 3.238281 -3.75 3.445312 -3.519531 3.59375 -3.34375 C 3.75 -3.164062 3.882812 -2.957031 4 -2.71875 C 4.113281 -2.488281 4.171875 -2.242188 4.171875 -1.984375 C 4.171875 -1.492188 4.039062 -1.09375 3.78125 -0.78125 C 3.53125 -0.46875 3.21875 -0.242188 2.84375 -0.109375 C 2.476562 0.015625 2.117188 0.078125 1.765625 0.078125 Z M 1.765625 0.078125 "/></g></g></g><g fill="#4b1e3d" fill-opacity="1"><g transform="translate(214.628888, 223.293237)"><g/></g></g><g fill="#4b1e3d" fill-opacity="1"><g transform="translate(217.990223, 223.293237)"><g><path d="M 2.40625 0.078125 C 1.78125 0.078125 1.285156 -0.140625 0.921875 -0.578125 C 0.554688 -1.023438 0.375 -1.664062 0.375 -2.5 C 0.375 -3.4375 0.503906 -4.269531 0.765625 -5 C 1.035156 -5.738281 1.4375 -6.316406 1.96875 -6.734375 C 2.5 -7.160156 3.148438 -7.375 3.921875 -7.375 C 4.484375 -7.375 4.921875 -7.25 5.234375 -7 C 5.554688 -6.757812 5.71875 -6.460938 5.71875 -6.109375 C 5.71875 -5.867188 5.65625 -5.648438 5.53125 -5.453125 C 5.40625 -5.253906 5.222656 -5.15625 4.984375 -5.15625 C 4.835938 -5.15625 4.710938 -5.191406 4.609375 -5.265625 C 4.503906 -5.347656 4.445312 -5.453125 4.4375 -5.578125 C 4.582031 -5.742188 4.65625 -5.921875 4.65625 -6.109375 C 4.65625 -6.304688 4.582031 -6.46875 4.4375 -6.59375 C 4.300781 -6.726562 4.09375 -6.800781 3.8125 -6.8125 C 3.289062 -6.8125 2.847656 -6.601562 2.484375 -6.1875 C 2.128906 -5.769531 1.863281 -5.21875 1.6875 -4.53125 C 1.519531 -3.851562 1.4375 -3.117188 1.4375 -2.328125 C 1.4375 -1.722656 1.539062 -1.273438 1.75 -0.984375 C 1.96875 -0.703125 2.257812 -0.5625 2.625 -0.5625 C 2.957031 -0.5625 3.296875 -0.644531 3.640625 -0.8125 C 3.984375 -0.976562 4.359375 -1.222656 4.765625 -1.546875 L 5.109375 -1.078125 C 4.597656 -0.671875 4.140625 -0.375 3.734375 -0.1875 C 3.335938 -0.0078125 2.894531 0.078125 2.40625 0.078125 Z M 2.40625 0.078125 "/></g></g></g><g fill="#4b1e3d" fill-opacity="1"><g transform="translate(224.351833, 223.293237)"><g><path d="M 0.09375 -0.40625 C 0.28125 -0.425781 0.445312 -0.457031 0.59375 -0.5 C 0.738281 -0.539062 0.878906 -0.601562 1.015625 -0.6875 L 1.96875 -6.59375 C 1.726562 -6.726562 1.414062 -6.820312 1.03125 -6.875 L 1.078125 -7.28125 L 4.015625 -7.28125 L 3.96875 -6.875 C 3.5 -6.820312 3.148438 -6.726562 2.921875 -6.59375 L 2.046875 -1.046875 L 2.03125 -0.9375 C 2.03125 -0.8125 2.082031 -0.726562 2.1875 -0.6875 C 2.289062 -0.644531 2.484375 -0.625 2.765625 -0.625 L 3.828125 -0.625 C 4.066406 -0.90625 4.285156 -1.3125 4.484375 -1.84375 C 4.566406 -1.863281 4.640625 -1.875 4.703125 -1.875 C 4.734375 -1.875 4.804688 -1.863281 4.921875 -1.84375 L 4.515625 0 L 0.015625 0 Z M 0.09375 -0.40625 "/></g></g></g><g fill="#4b1e3d" fill-opacity="1"><g transform="translate(230.484332, 223.293237)"><g><path d="M 0.09375 -0.40625 C 0.289062 -0.425781 0.457031 -0.457031 0.59375 -0.5 C 0.738281 -0.539062 0.882812 -0.601562 1.03125 -0.6875 L 1.96875 -6.59375 C 1.726562 -6.738281 1.414062 -6.832031 1.03125 -6.875 L 1.078125 -7.28125 L 3.90625 -7.28125 L 3.859375 -6.875 C 3.671875 -6.851562 3.503906 -6.820312 3.359375 -6.78125 C 3.210938 -6.738281 3.066406 -6.675781 2.921875 -6.59375 L 1.984375 -0.6875 C 2.222656 -0.550781 2.550781 -0.457031 2.96875 -0.40625 L 2.921875 0 L 0.03125 0 Z M 0.09375 -0.40625 "/></g></g></g><g fill="#4b1e3d" fill-opacity="1"><g transform="translate(235.045764, 223.293237)"><g><path d="M 7.671875 -7.28125 L 7.609375 -6.875 C 7.421875 -6.851562 7.253906 -6.820312 7.109375 -6.78125 C 6.972656 -6.738281 6.832031 -6.675781 6.6875 -6.59375 L 5.640625 0 L 5.1875 0 L 2.5 -5.640625 L 1.703125 -0.6875 C 1.953125 -0.550781 2.285156 -0.457031 2.703125 -0.40625 L 2.65625 0 L 0.015625 0 L 0.09375 -0.40625 C 0.28125 -0.425781 0.441406 -0.457031 0.578125 -0.5 C 0.710938 -0.539062 0.851562 -0.597656 1 -0.671875 L 1.953125 -6.59375 C 1.722656 -6.726562 1.414062 -6.820312 1.03125 -6.875 L 1.078125 -7.28125 L 2.765625 -7.28125 L 5.25 -2 L 5.96875 -6.59375 C 5.75 -6.726562 5.441406 -6.820312 5.046875 -6.875 L 5.09375 -7.28125 Z M 7.671875 -7.28125 "/></g></g></g><g fill="#4b1e3d" fill-opacity="1"><g transform="translate(243.142092, 223.293237)"><g><path d="M 0.09375 -0.40625 C 0.289062 -0.425781 0.457031 -0.457031 0.59375 -0.5 C 0.738281 -0.539062 0.882812 -0.601562 1.03125 -0.6875 L 1.96875 -6.59375 C 1.726562 -6.738281 1.414062 -6.832031 1.03125 -6.875 L 1.078125 -7.28125 L 3.90625 -7.28125 L 3.859375 -6.875 C 3.671875 -6.851562 3.503906 -6.820312 3.359375 -6.78125 C 3.210938 -6.738281 3.066406 -6.675781 2.921875 -6.59375 L 1.984375 -0.6875 C 2.222656 -0.550781 2.550781 -0.457031 2.96875 -0.40625 L 2.921875 0 L 0.03125 0 Z M 0.09375 -0.40625 "/></g></g></g><g fill="#4b1e3d" fill-opacity="1"><g transform="translate(247.703524, 223.293237)"><g><path d="M 2.40625 0.078125 C 1.78125 0.078125 1.285156 -0.140625 0.921875 -0.578125 C 0.554688 -1.023438 0.375 -1.664062 0.375 -2.5 C 0.375 -3.4375 0.503906 -4.269531 0.765625 -5 C 1.035156 -5.738281 1.4375 -6.316406 1.96875 -6.734375 C 2.5 -7.160156 3.148438 -7.375 3.921875 -7.375 C 4.484375 -7.375 4.921875 -7.25 5.234375 -7 C 5.554688 -6.757812 5.71875 -6.460938 5.71875 -6.109375 C 5.71875 -5.867188 5.65625 -5.648438 5.53125 -5.453125 C 5.40625 -5.253906 5.222656 -5.15625 4.984375 -5.15625 C 4.835938 -5.15625 4.710938 -5.191406 4.609375 -5.265625 C 4.503906 -5.347656 4.445312 -5.453125 4.4375 -5.578125 C 4.582031 -5.742188 4.65625 -5.921875 4.65625 -6.109375 C 4.65625 -6.304688 4.582031 -6.46875 4.4375 -6.59375 C 4.300781 -6.726562 4.09375 -6.800781 3.8125 -6.8125 C 3.289062 -6.8125 2.847656 -6.601562 2.484375 -6.1875 C 2.128906 -5.769531 1.863281 -5.21875 1.6875 -4.53125 C 1.519531 -3.851562 1.4375 -3.117188 1.4375 -2.328125 C 1.4375 -1.722656 1.539062 -1.273438 1.75 -0.984375 C 1.96875 -0.703125 2.257812 -0.5625 2.625 -0.5625 C 2.957031 -0.5625 3.296875 -0.644531 3.640625 -0.8125 C 3.984375 -0.976562 4.359375 -1.222656 4.765625 -1.546875 L 5.109375 -1.078125 C 4.597656 -0.671875 4.140625 -0.375 3.734375 -0.1875 C 3.335938 -0.0078125 2.894531 0.078125 2.40625 0.078125 Z M 2.40625 0.078125 "/></g></g></g></svg>