<svg width="58" height="58" viewBox="0 0 58 58" fill="none" xmlns="http://www.w3.org/2000/svg">
<rect x="1" y="1" width="56" height="56" rx="28" fill="white"/>
<path fill-rule="evenodd" clip-rule="evenodd" d="M2 29C2 14.0883 14.0883 2 29 2C43.9117 2 56 14.0883 56 29C56 43.9117 43.9117 56 29 56C14.0883 56 2 43.9117 2 29ZM29 15.5C36.425 15.5 42.5 21.575 42.5 29C42.5 35.75 37.6063 41.4875 30.8563 42.5V32.8812H34.0625L34.7375 29H31.025V26.4688C31.025 25.4562 31.5312 24.4438 33.2188 24.4438H34.9062V21.0688C34.9062 21.0688 33.3875 20.7313 31.8688 20.7313C28.8313 20.7313 26.8062 22.5875 26.8062 25.9625V29H23.4312V32.8812H26.8062V42.3312C20.3937 41.3187 15.5 35.75 15.5 29C15.5 21.575 21.575 15.5 29 15.5Z" fill="#320343"/>
<rect x="1" y="1" width="56" height="56" rx="28" stroke="white" stroke-width="2"/>
</svg>
