<svg width="58" height="58" viewBox="0 0 58 58" fill="none" xmlns="http://www.w3.org/2000/svg">
<rect x="1" y="1" width="56" height="56" rx="28" fill="white"/>
<path d="M29 33.725C26.4688 33.725 24.275 31.7 24.275 29C24.275 26.4687 26.3 24.275 29 24.275C31.5312 24.275 33.725 26.3 33.725 29C33.725 31.5312 31.5312 33.725 29 33.725Z" fill="#320343"/>
<path fill-rule="evenodd" clip-rule="evenodd" d="M34.7375 17.525H23.2625C21.9125 17.6937 21.2375 17.8625 20.7313 18.0312C20.0563 18.2 19.55 18.5375 19.0438 19.0437C18.6432 19.4443 18.4539 19.8449 18.2251 20.3291C18.1648 20.4567 18.1016 20.5905 18.0312 20.7312C18.0051 20.8096 17.975 20.8919 17.9427 20.9802C17.7662 21.4625 17.525 22.1213 17.525 23.2625V34.7375C17.6938 36.0875 17.8625 36.7625 18.0312 37.2687C18.2 37.9437 18.5375 38.45 19.0438 38.9562C19.4443 39.3568 19.8449 39.5461 20.3291 39.7749C20.4568 39.8352 20.5904 39.8983 20.7313 39.9687C20.8096 39.9949 20.8919 40.025 20.9802 40.0573C21.4625 40.2338 22.1213 40.475 23.2625 40.475H34.7375C36.0875 40.3062 36.7625 40.1375 37.2687 39.9687C37.9437 39.8 38.45 39.4625 38.9562 38.9562C39.3568 38.5557 39.5461 38.1551 39.7749 37.6709C39.8352 37.5432 39.8983 37.4096 39.9688 37.2687C39.9949 37.1904 40.025 37.1081 40.0573 37.0198C40.2338 36.5375 40.475 35.8787 40.475 34.7375V23.2625C40.3062 21.9125 40.1375 21.2375 39.9688 20.7312C39.8 20.0562 39.4625 19.55 38.9562 19.0437C38.5557 18.6432 38.1551 18.4539 37.6709 18.2251C37.5434 18.1649 37.4094 18.1016 37.2687 18.0312C37.1904 18.0051 37.1081 17.975 37.0198 17.9427C36.5375 17.7662 35.8787 17.525 34.7375 17.525ZM29 21.7437C24.95 21.7437 21.7437 24.95 21.7437 29C21.7437 33.05 24.95 36.2562 29 36.2562C33.05 36.2562 36.2562 33.05 36.2562 29C36.2562 24.95 33.05 21.7437 29 21.7437ZM38.1125 21.575C38.1125 22.507 37.357 23.2625 36.425 23.2625C35.493 23.2625 34.7375 22.507 34.7375 21.575C34.7375 20.643 35.493 19.8875 36.425 19.8875C37.357 19.8875 38.1125 20.643 38.1125 21.575Z" fill="#320343"/>
<path fill-rule="evenodd" clip-rule="evenodd" d="M2 29C2 14.0883 14.0883 2 29 2C43.9117 2 56 14.0883 56 29C56 43.9117 43.9117 56 29 56C14.0883 56 2 43.9117 2 29ZM23.2625 14.9937H34.7375C36.2562 15.1625 37.2687 15.3312 38.1125 15.6687C39.125 16.175 39.8 16.5125 40.6437 17.3562C41.4875 18.2 41.9938 19.0437 42.3313 19.8875C42.6688 20.7312 43.0062 21.7437 43.0062 23.2625V34.7375C42.8375 36.2562 42.6688 37.2687 42.3313 38.1125C41.825 39.125 41.4875 39.8 40.6437 40.6437C39.8 41.4875 38.9562 41.9937 38.1125 42.3312C37.2687 42.6687 36.2562 43.0062 34.7375 43.0062H23.2625C21.7438 42.8375 20.7313 42.6687 19.8875 42.3312C18.875 41.825 18.2 41.4875 17.3563 40.6437C16.5125 39.8 16.0063 38.9562 15.6688 38.1125C15.3313 37.2687 14.9937 36.2562 14.9937 34.7375V23.2625C15.1625 21.7437 15.3313 20.7312 15.6688 19.8875C16.175 18.875 16.5125 18.2 17.3563 17.3562C18.2 16.5125 19.0438 16.0062 19.8875 15.6687C20.7313 15.3312 21.7438 14.9937 23.2625 14.9937Z" fill="#320343"/>
<rect x="1" y="1" width="56" height="56" rx="28" stroke="white" stroke-width="2"/>
</svg>
