<svg width="58" height="58" viewBox="0 0 58 58" fill="none" xmlns="http://www.w3.org/2000/svg">
<rect x="1" y="1" width="56" height="56" rx="28" fill="white"/>
<path d="M33.3875 29L26.3 24.95V33.05L33.3875 29Z" fill="#320343"/>
<path fill-rule="evenodd" clip-rule="evenodd" d="M2 29C2 14.0883 14.0883 2 29 2C43.9117 2 56 14.0883 56 29C56 43.9117 43.9117 56 29 56C14.0883 56 2 43.9117 2 29ZM39.4625 20.0563C40.6438 20.3938 41.4875 21.2375 41.825 22.4188C42.5 24.6125 42.5 29 42.5 29C42.5 29 42.5 33.3875 41.9938 35.5813C41.6563 36.7625 40.8125 37.6063 39.6312 37.9438C37.4375 38.45 29 38.45 29 38.45C29 38.45 20.3937 38.45 18.3687 37.9438C17.1875 37.6063 16.3438 36.7625 16.0063 35.5813C15.5 33.3875 15.5 29 15.5 29C15.5 29 15.5 24.6125 15.8375 22.4188C16.175 21.2375 17.0188 20.3938 18.2 20.0563C20.3938 19.55 28.8312 19.55 28.8312 19.55C28.8312 19.55 37.4375 19.55 39.4625 20.0563Z" fill="#320343"/>
<rect x="1" y="1" width="56" height="56" rx="28" stroke="white" stroke-width="2"/>
</svg>
